<?xml version="1.0" encoding="UTF-8" standalone="no"?><!DOCTYPE svg PUBLIC "-//W3C//DTD SVG 1.1//EN" "http://www.w3.org/Graphics/SVG/1.1/DTD/svg11.dtd"><svg width="100%" height="100%" viewBox="0 0 59 52" version="1.1" xmlns="http://www.w3.org/2000/svg" xmlns:xlink="http://www.w3.org/1999/xlink" xml:space="preserve" style="fill-rule:evenodd;clip-rule:evenodd;stroke-linejoin:round;stroke-miterlimit:1.41421;"><rect id="Artboard1" x="0" y="0" width="58.174" height="51.678" style="fill:none;"/><g><path d="M12.982,32.756l0,-18.996l5.54,0l0,14.007c3.947,-3.249 8.161,-6.163 12.46,-8.684l0,-11.993l5.527,0l0,8.984c3.516,-1.759 7.034,-3.239 10.463,-4.424c-4.538,-6.62 -12.163,-10.977 -20.798,-10.977c-13.911,0 -25.174,11.267 -25.174,25.176c0,5.582 1.825,10.751 4.912,14.928c2.141,-2.819 4.509,-5.499 7.07,-8.021" style="fill:#fff;fill-rule:nonzero;"/><path d="M47.449,12.381c-3.64,1.493 -7.337,3.519 -10.938,5.997l0,26.212l-5.528,0l0,-21.981c-7.632,6.435 -14.388,14.85 -18.591,24.303c3.96,2.591 8.692,4.093 13.783,4.093c13.902,0 25.184,-11.258 25.184,-25.154c-0.001,-4.957 -1.438,-9.573 -3.91,-13.47" style="fill:#fff;fill-rule:nonzero;"/><path d="M57.174,9.913c0,1.968 -1.598,3.563 -3.549,3.563c-1.97,0 -3.56,-1.595 -3.56,-3.563c0,-1.966 1.59,-3.562 3.56,-3.562c1.951,0 3.549,1.595 3.549,3.562" style="fill:#fff;fill-rule:nonzero;"/></g></svg>