<?xml version="1.0" encoding="UTF-8" standalone="no"?><!DOCTYPE svg PUBLIC "-//W3C//DTD SVG 1.1//EN" "http://www.w3.org/Graphics/SVG/1.1/DTD/svg11.dtd"><svg width="100%" height="100%" viewBox="0 0 508 231" version="1.1" xmlns="http://www.w3.org/2000/svg" xmlns:xlink="http://www.w3.org/1999/xlink" xml:space="preserve" style="fill-rule:evenodd;clip-rule:evenodd;stroke-linejoin:round;stroke-miterlimit:1.41421;"><g id="logo.-.-colored"><path id="_2o17" d="M313,230.25l42.355,0l0,-161.25l-42.355,0l0,161.25Zm79.192,-161.25l0,34.4l69.785,0l-73.315,126.85l39.13,0l73.1,-126.635l0,-34.615l-108.7,0Z" style="fill:#edeff7;"/><g id="Group"><path id="Combined.-Shape.-Copy" d="M269.996,25.651c-36.417,-25.109 -86.513,-15.982 -111.927,20.313c-25.414,36.295 -16.613,86.142 19.441,111.772l24.253,-34.637c-16.933,-12.337 -20.804,-36.114 -8.857,-53.175c12.069,-17.236 35.616,-21.561 52.997,-9.864l24.093,-34.409Z" style="fill:#5068f6;"/><path id="Combined.-Shape.-Copy.-2" d="M236.865,71.37c36.318,25.254 45.4,75.358 20.368,111.917c-25.033,36.56 -74.79,45.859 -111.466,21.129l23.889,-34.89c17.506,11.51 41.124,6.768 52.891,-10.418c11.888,-17.362 7.652,-40.925 -9.413,-53.08l23.731,-34.658Z" style="fill:#dd2c68;"/></g><path id="Path" d="M0.422,158.25l109.509,0l0,-33.549l-44.732,0l30.173,-42.833c0,0 9.495,-12.66 9.495,-29.118c0,-25.742 -20.467,-52.75 -51.273,-52.75c-32.494,0 -53.594,25.109 -53.594,52.117l33.971,0c0,-10.55 8.229,-18.779 18.357,-18.779c11.183,0 18.779,10.128 18.779,18.146c0,6.119 -2.954,11.394 -6.963,16.247l-63.722,90.519Z" style="fill:#edeff7;"/><g><path d="M330.382,18.077l2.398,-5.095c-3.182,-2.105 -7.541,-3.524 -12.002,-3.524c-7.45,0 -12.492,3.671 -12.492,9.55c0,12.204 18.522,7.94 18.522,15.586c0,2.647 -2.402,4.166 -6.422,4.166c-3.677,0 -8.086,-1.764 -11.61,-4.999l-2.499,4.999c3.527,3.23 8.618,5.433 14.011,5.433c7.548,0 12.933,-3.769 12.933,-9.893c0.049,-12.351 -18.473,-8.332 -18.473,-15.831c0,-2.304 2.206,-3.578 5.589,-3.578c2.598,0 6.324,0.931 10.045,3.186Z" style="fill:#edeff7;fill-rule:nonzero;"/><path d="M349.003,9.703l0,34.294l5.776,0l0,-14.21l18.185,0l0,14.21l5.776,0l0,-34.294l-5.776,0l0,14.896l-18.185,0l0,-14.896l-5.776,0Z" style="fill:#edeff7;fill-rule:nonzero;"/><rect x="396.775" y="9.703" width="5.776" height="34.294" style="fill:#edeff7;fill-rule:nonzero;"/><path d="M420.587,9.703l0,34.294l5.776,0l0,-14.063l15.582,0l0,-5.139l-15.582,0l0,-9.904l17.199,0l0.049,-5.188l-23.024,0Z" style="fill:#edeff7;fill-rule:nonzero;"/><path d="M453.708,9.703l0,5.188l10.829,0l0,29.106l5.776,0l0,-29.106l10.878,0l0,-5.188l-27.483,0Z" style="fill:#edeff7;fill-rule:nonzero;"/></g></g></svg>